<svg xmlns="http://www.w3.org/2000/svg" xmlns:xlink="http://www.w3.org/1999/xlink" viewBox="0 0 3600 1500"><defs><style>.cls-1{isolation:isolate;}.cls-2{fill:url(#linear-gradient);}.cls-11,.cls-12,.cls-14,.cls-3{mix-blend-mode:multiply;}.cls-12,.cls-4{fill:#999;}.cls-14,.cls-5{fill:#666;}.cls-6{fill:#b3b3b3;}.cls-11,.cls-7{fill:gray;}.cls-8{fill:#ccc;}.cls-9{fill:url(#radial-gradient);}.cls-10,.cls-15{fill:#4d4d4d;}.cls-10{mix-blend-mode:overlay;}.cls-13{fill:url(#radial-gradient-2);}.cls-16{fill:url(#linear-gradient-2);}.cls-17{fill:url(#linear-gradient-3);}.cls-18{fill:url(#linear-gradient-4);}.cls-19{fill:url(#linear-gradient-5);}.cls-20{fill:url(#linear-gradient-6);}.cls-21{fill:url(#linear-gradient-7);}.cls-22{fill:#fff;}.cls-23{fill:url(#linear-gradient-8);}.cls-24{fill:url(#linear-gradient-9);}.cls-25{fill:url(#linear-gradient-10);}.cls-26{fill:url(#linear-gradient-11);}.cls-27,.cls-28,.cls-29,.cls-30{mix-blend-mode:screen;}.cls-27{fill:url(#radial-gradient-3);}.cls-28{fill:url(#radial-gradient-4);}.cls-29{fill:url(#radial-gradient-5);}.cls-30{fill:url(#radial-gradient-6);}</style><linearGradient id="linear-gradient" y1="750" x2="3600" y2="750" gradientUnits="userSpaceOnUse"><stop offset="0.07" stop-color="red"/><stop offset="1" stop-color="#600"/></linearGradient><radialGradient id="radial-gradient" cx="1871.95" cy="694.34" r="1757.66" gradientUnits="userSpaceOnUse"><stop offset="0" stop-color="#ffdc12"/><stop offset="1" stop-color="#ff931e"/></radialGradient><radialGradient id="radial-gradient-2" cx="4596.82" cy="2627.2" r="1757.66" xlink:href="#radial-gradient"/><linearGradient id="linear-gradient-2" x1="603.49" y1="1366.17" x2="2983.52" y2="731.9" gradientUnits="userSpaceOnUse"><stop offset="0" stop-color="#ff931e"/><stop offset="1" stop-color="#ffdc12"/></linearGradient><linearGradient id="linear-gradient-3" x1="614.22" y1="980.17" x2="1698.47" y2="597.49" xlink:href="#radial-gradient"/><linearGradient id="linear-gradient-4" x1="617.65" y1="989.89" x2="1701.91" y2="607.21" xlink:href="#radial-gradient"/><linearGradient id="linear-gradient-5" x1="621.05" y1="999.55" x2="1705.32" y2="616.87" xlink:href="#radial-gradient"/><linearGradient id="linear-gradient-6" x1="623.51" y1="1006.52" x2="1707.78" y2="623.84" xlink:href="#radial-gradient"/><linearGradient id="linear-gradient-7" x1="626.73" y1="1015.64" x2="1711" y2="632.96" xlink:href="#radial-gradient"/><linearGradient id="linear-gradient-8" x1="1673.82" y1="739.27" x2="3002.31" y2="308.84" xlink:href="#radial-gradient"/><linearGradient id="linear-gradient-9" x1="1676.12" y1="746.35" x2="3004.6" y2="315.92" xlink:href="#radial-gradient"/><linearGradient id="linear-gradient-10" x1="1677.73" y1="751.33" x2="3006.22" y2="320.9" xlink:href="#radial-gradient"/><linearGradient id="linear-gradient-11" x1="1679.36" y1="756.36" x2="3007.85" y2="325.93" xlink:href="#radial-gradient"/><radialGradient id="radial-gradient-3" cx="1774.15" cy="609.35" r="342.53" gradientUnits="userSpaceOnUse"><stop offset="0" stop-color="#ff931e"/><stop offset="0.12" stop-color="#c77317"/><stop offset="0.24" stop-color="#935511"/><stop offset="0.37" stop-color="#663b0c"/><stop offset="0.5" stop-color="#412608"/><stop offset="0.63" stop-color="#251504"/><stop offset="0.75" stop-color="#100902"/><stop offset="0.88" stop-color="#040200"/><stop offset="1"/></radialGradient><radialGradient id="radial-gradient-4" cx="639.71" cy="971.87" r="291.04" gradientTransform="translate(874.58 -167.69) rotate(45)" xlink:href="#radial-gradient-3"/><radialGradient id="radial-gradient-5" cx="1400.44" cy="846.89" r="291.04" xlink:href="#radial-gradient-3"/><radialGradient id="radial-gradient-6" cx="2736.3" cy="608.44" r="404.03" gradientTransform="translate(1231.68 -1756.65) rotate(45)" xlink:href="#radial-gradient-3"/></defs><g class="cls-1"><g id="Capa_2" data-name="Capa 2"><g id="Layer_1" data-name="Layer 1"><rect class="cls-2" width="3600" height="1500"/><g class="cls-3"><polygon class="cls-4" points="3600 870.11 3600 983.86 1800 1500 1284.96 1500 3600 870.11"/><polygon class="cls-5" points="3600 0 3600 13.09 0 1085.62 0 986.81 3216.23 0 3600 0"/><polygon class="cls-6" points="3092.38 0 0 948.81 0 658.12 2624.75 0 3092.38 0"/><polygon class="cls-4" points="3216.23 0 0 986.81 0 948.81 3092.38 0 3216.23 0"/><polygon class="cls-7" points="2624.75 0 0 658.12 0 516.14 1800 0 2624.75 0"/><polygon class="cls-8" points="3600 842.57 3600 870.11 1284.96 1500 1125.28 1500 3600 842.57"/><polygon class="cls-6" points="3600 77.66 0 1264.02 0 1335.97 3600 318.42 3600 77.66"/><polygon class="cls-7" points="3600 445.61 3600 601.35 534.13 1500 270.73 1500 3600 445.61"/><polygon class="cls-4" points="3600 601.35 3600 649.35 698.22 1500 534.13 1500 3600 601.35"/><polygon class="cls-6" points="3600 649.35 3600 842.57 1125.28 1500 698.22 1500 3600 649.35"/><polygon class="cls-4" points="3600 348.56 3600 445.61 270.73 1500 0 1500 0 1380.85 3600 348.56"/><polygon class="cls-7" points="3600 13.09 0 1085.62 0 1264.02 3600 77.66 3600 13.09"/><polygon class="cls-6" points="3600 318.42 0 1335.97 0 1380.85 3600 348.56 3600 318.42"/></g><polygon class="cls-9" points="741.42 462.37 741.42 293.26 0 515.96 0 0 2163.17 0 741.42 462.37"/><polygon class="cls-10" points="883.81 248.89 883.81 79.78 0 340.99 0 0 1649.12 0 883.81 248.89"/><polygon class="cls-11" points="0 515.96 741.43 397.88 741.43 293.26 0 515.96"/><polygon class="cls-12" points="741.43 462.37 2536.82 0 2163.17 0 741.43 462.37"/><polygon class="cls-13" points="3600 1055.61 3600 1500 1736.89 1500 2961.42 1101.77 2961.42 1247.42 3600 1055.61"/><polygon class="cls-10" points="3600 1213.7 3600 1500 2167.1 1500 2851.33 1277.48 2851.33 1423.13 3600 1213.7"/><polygon class="cls-14" points="2961.42 1247.42 3600 961.75 3600 1055.61 2961.42 1247.42"/><polygon class="cls-12" points="2961.42 1101.77 2961.42 980.88 1736.89 1500 2961.42 1101.77"/><g class="cls-3"><polygon class="cls-15" points="2008.5 1020.47 1486.71 1180.81 1512.57 1101.47 685.94 1345.37 671.57 1426.05 1436.18 1176.45 1418.59 1242.05 2008.5 1020.47"/><path class="cls-15" d="M671.69,1130.91l-64.52,19.73L584.4,893.78,726.65,850.3,731.59,906l-77.73,23.76,4.51,49,72-22,4.7,56.13-72.28,22.09Z"/><path class="cls-15" d="M799.42,1091.86,776.65,835l64.53-19.73,17.89,200.78L937.79,992l4.87,56.08Z"/><path class="cls-15" d="M1099.8,950.58l-73.93,22.61-6.8,51.52-67,20.48,49-278.8,83-25.38,94.06,235.06-62.87,19.23Zm-66.07-36.1,48.35-14.78-24.2-69.11-4.66-14.09q-3.79-12.37-6-21.82a189.63,189.63,0,0,1-1.7,30.47Z"/><path class="cls-15" d="M1339,845.87q11.19,36.64-6.83,64.44t-61.43,41.06a147.52,147.52,0,0,1-35.56,6.45,93.59,93.59,0,0,1-31.5-3.27L1186,896.79a151.05,151.05,0,0,0,36.26,5q19.73.47,34.24-4,12.21-3.72,16.92-10.76t1.83-16.44a18.79,18.79,0,0,0-4.52-7.73,36.1,36.1,0,0,0-8-6q-4.82-2.76-24.69-11.13-24-9.6-37.74-23.11a76.7,76.7,0,0,1-19.6-32.8q-6.6-21.62-1.07-42.17T1202,711.54q16.82-15.51,41.24-23,39.43-12.06,76.36-4l-7.29,55.82q-32.67-5.88-52.47.16-10.56,3.24-14.84,9.59t-1.55,15.28a25,25,0,0,0,10.14,13.41q7.67,5.33,26.77,12.29,23.85,8.41,38.11,21.37T1339,845.87Z"/><path class="cls-15" d="M1577.51,854,1513,873.7,1503.54,769l-57.1,17.46,9.12,104.76L1391,911l-22.77-256.86,64.53-19.72,8.86,95.09,57.43-17.56-8.87-95.09,64.69-19.78Z"/><path class="cls-15" d="M700.59,1286.88l-62.19,19-1.56-16.85,21.64-36.11q11.16-18.37,8.51-27a6.25,6.25,0,0,0-3-4.06,6,6,0,0,0-4.54-.27q-7.43,2.28-14.61,14.41l-16.39-12.44q10.29-18.1,29.29-23.91,11.32-3.47,20.14.58t12,14.55a33.15,33.15,0,0,1,0,19.28q-2.88,9.89-12.48,25.13L668.08,1274l.23.74,30.32-9.27Z"/><path class="cls-15" d="M776,1244.68l-9.28,2.84,1.7,18.63-23.32,7.13-1.64-18.65-34,10.39-1.69-16.81,29.69-71.52,22.27-6.81,5.22,58.21,9.22-2.82Zm-34.35-9.45L741,1222.3q-.22-7.17-.28-14.2l-.55.17a62.39,62.39,0,0,1-3.8,12.8l-7.66,18.11Z"/><path class="cls-15" d="M893.83,1227.8l-24.19,7.4L866.1,1196l-21.41,6.54,3.41,39.28-24.19,7.4-8.54-96.31,24.2-7.4,3.32,35.66,21.53-6.58-3.32-35.66,24.25-7.42Z"/><path class="cls-15" d="M939.74,1113.29q16.1-4.92,27.84,1.53t16.78,22.92a75.63,75.63,0,0,1,3,32q-2,15.52-10.59,26.1t-22.9,15q-16.65,5.1-28.53-1.35t-16.9-22.85a74.12,74.12,0,0,1-2.84-32.08q2.18-15.69,11-26.26A47.14,47.14,0,0,1,939.74,1113.29ZM960,1145.46q-2.16-7.05-6.35-10.14t-9.82-1.36q-6.12,1.88-9.67,8.64t-3.83,16.8A60.71,60.71,0,0,0,933,1179q4.57,15,16.95,11.18,5.88-1.79,9.36-8.47A36.8,36.8,0,0,0,963,1165.4,63.18,63.18,0,0,0,960,1145.46Z"/><path class="cls-15" d="M1067.77,1075.7l5.32,61.44q1.67,18.49-6.06,30T1041.66,1184A31.81,31.81,0,0,1,1026,1185a25.08,25.08,0,0,1-12.69-6.54,28.69,28.69,0,0,1-7.62-12.63,45.86,45.86,0,0,1-1.69-8.2l-5.15-60.88,24.19-7.4,5.21,60.18a37.9,37.9,0,0,0,1.31,7.38q2.4,7.86,9.89,5.57a11.7,11.7,0,0,0,7.9-6.78q2.1-5,1.31-13.76l-5.07-58.87Z"/><path class="cls-15" d="M1117.72,1123.35l3.08,35.06-24.2,7.4-8.53-96.31,23.94-7.32q15.6-4.77,25.78-1.12t14,16.09a33.19,33.19,0,0,1,.75,18.18,29.1,29.1,0,0,1-9.71,14.94l23.62,27.69,4.29,5.19-26.36,8L1122.24,1122Zm-1.71-19.57,3.15-1q5.88-1.8,8.31-6.23t.58-10.49a8,8,0,0,0-3.92-5.2q-2.75-1.35-6.83-.11l-3.28,1Z"/><path class="cls-15" d="M1228.88,1095q4.2,13.73-2.56,24.16t-23,15.4A55.48,55.48,0,0,1,1190,1137a35.06,35.06,0,0,1-11.81-1.22l-6.62-21.66a56.34,56.34,0,0,0,13.6,1.86,40.7,40.7,0,0,0,12.84-1.48c3-.94,5.16-2.28,6.34-4a6.93,6.93,0,0,0,.69-6.17,7,7,0,0,0-1.7-2.89,13.4,13.4,0,0,0-3-2.27q-1.82-1-9.26-4.17-9-3.6-14.15-8.66a28.69,28.69,0,0,1-7.35-12.31,27.73,27.73,0,0,1,8-29.33A39.43,39.43,0,0,1,1193,1036a56,56,0,0,1,28.64-1.51l-2.74,20.93q-12.24-2.22-19.67.06c-2.64.81-4.5,2-5.56,3.59a6.41,6.41,0,0,0-.59,5.73,9.43,9.43,0,0,0,3.8,5,48.23,48.23,0,0,0,10,4.61,41.47,41.47,0,0,1,14.29,8A27.32,27.32,0,0,1,1228.88,1095Z"/><path class="cls-15" d="M1306.68,1001.1q16.08-4.9,27.84,1.54t16.78,22.92a75.76,75.76,0,0,1,3,32q-2,15.53-10.6,26.11a46,46,0,0,1-22.9,14.95q-16.63,5.09-28.52-1.36t-16.9-22.84a74,74,0,0,1-2.84-32.09q2.17-15.68,11-26.25A47.26,47.26,0,0,1,1306.68,1001.1Zm20.25,32.18c-1.43-4.71-3.55-8.08-6.34-10.14s-6.07-2.51-9.83-1.36q-6.12,1.88-9.67,8.64t-3.83,16.8a60.62,60.62,0,0,0,2.64,19.56q4.57,15,16.95,11.19,5.88-1.8,9.35-8.47t3.68-16.29A63.16,63.16,0,0,0,1326.93,1033.28Z"/><path class="cls-15" d="M1454.26,1056.46l-28.16,8.61-37.33-58.14-.49.15q3.71,18.55,4.38,26.94l3.56,40.19-21.54,6.58-8.54-96.31,28.16-8.61,36.29,55.42.56-.17q-2.67-15.15-3.49-24l-3.47-40.34,21.53-6.59Z"/><path class="cls-15" d="M1474.8,1050.18l-8.54-96.31,24.19-7.39,6.72,75.28,29.51-9,1.83,21Z"/><path class="cls-15" d="M1562.77,961l9-39.44,27-8.25-20.93,67,3.24,37.37-24.2,7.4-3.3-37.36L1522,936.83,1547,929.2Z"/><path class="cls-15" d="M2161.71,925.57,2167,987q1.66,18.5-6.06,30t-25.37,16.86a31.92,31.92,0,0,1-15.67,1.07,25.08,25.08,0,0,1-12.69-6.54,28.58,28.58,0,0,1-7.61-12.63,45.12,45.12,0,0,1-1.7-8.21l-5.15-60.87,24.19-7.4,5.21,60.18a38.45,38.45,0,0,0,1.31,7.39q2.4,7.84,9.89,5.56a11.7,11.7,0,0,0,7.9-6.78q2.1-5,1.31-13.76L2137.52,933Z"/><path class="cls-15" d="M2246.54,929.27q4.77,15.6-3.13,27.72t-26.34,17.76l-5.32,1.63,3,31.9-24.2,7.4L2182,919.37l23.08-7.06q16-4.9,26.74-.5T2246.54,929.27Zm-36.51,26,3.9-1.19a12.6,12.6,0,0,0,8-6.4,13.32,13.32,0,0,0,.65-10.25,8.28,8.28,0,0,0-4-5.19,8.64,8.64,0,0,0-6.81-.36l-3.65,1.12Z"/><path class="cls-15" d="M2339.18,970.24l-24.2,7.39-6.88-75-19.62,6-1.84-21.29,63.61-19.45,1.72,21.33-19.68,6Z"/><path class="cls-15" d="M2397.71,851.86q16.1-4.9,27.84,1.54t16.78,22.92a75.6,75.6,0,0,1,3.05,32q-2,15.53-10.59,26.11a46,46,0,0,1-22.9,15q-16.65,5.08-28.53-1.36t-16.9-22.85a74,74,0,0,1-2.84-32.08q2.18-15.69,11-26.25A47.16,47.16,0,0,1,2397.71,851.86ZM2418,884q-2.16-7-6.35-10.13t-9.82-1.36q-6.14,1.86-9.68,8.64T2388.3,898a60.65,60.65,0,0,0,2.63,19.56q4.58,15,17,11.19,5.88-1.8,9.35-8.48t3.68-16.28A63.49,63.49,0,0,0,2418,884Z"/><path class="cls-15" d="M2519,850.44q11.19-3.42,20.38,1.72t12.95,17.45q4.93,16.15-2.35,28t-26.16,17.57a85.05,85.05,0,0,1-15.54,3.26q-7.56.83-11.64-.57l-6.13-20a45.93,45.93,0,0,0,12.53.93,49.56,49.56,0,0,0,11.87-1.9q17.13-5.24,13.51-17.12A10.43,10.43,0,0,0,2523,873q-4-1.95-9.34-.32a41.89,41.89,0,0,0-6.68,2.72,37.75,37.75,0,0,0-5.28,3.1l-9.29-3.39-.86-50.41,50.31-15.38,1.9,21.27-29.15,8.91-.15,12.57A43.9,43.9,0,0,1,2519,850.44Z"/><path class="cls-15" d="M2623.1,816.92q5.64,18.45,4.75,34.37T2620,877.55a34.78,34.78,0,0,1-19.24,14.07q-13,4-22.06-1.78t-13.48-20.17a102.28,102.28,0,0,1-4.83-34.62q.75-16.37,7.68-26.87a34.32,34.32,0,0,1,19.19-14.26,26.71,26.71,0,0,1,15.45-.5,25.64,25.64,0,0,1,12.3,8.05A41.74,41.74,0,0,1,2623.1,816.92Zm-32.67-2.6q-3.41,1-4.7,8.95a74.19,74.19,0,0,0-.18,19.14,106.47,106.47,0,0,0,3.94,20.38,23.81,23.81,0,0,0,3.25,7.32,3.76,3.76,0,0,0,4.45,1.28q3.58-1.1,5.11-7.95t.61-18.15a101.26,101.26,0,0,0-4-21.5,23.94,23.94,0,0,0-3.64-7.79A4.21,4.21,0,0,0,2590.43,814.32Z"/><path class="cls-15" d="M2673.75,789.39a51.12,51.12,0,0,1,2.23,19.82,32.61,32.61,0,0,1-5.69,16.32,24,24,0,0,1-12.8,9.16q-9.84,3-16.31-.66t-9.4-13.27a54,54,0,0,1-2.51-20.17,30.56,30.56,0,0,1,5.56-16,24.92,24.92,0,0,1,13.27-9.13q9.11-2.79,15.94.88T2673.75,789.39Zm43.06-33.53-39.23,110.91-18.37,5.62,39.72-111.06ZM2651,791c-2.06.63-3.2,3.46-3.4,8.48a46.73,46.73,0,0,0,2.16,15.58c1.06,3.47,2.68,4.86,4.87,4.19s3.3-3.49,3.45-8.53a47.88,47.88,0,0,0-2.21-15.52,8.44,8.44,0,0,0-1.94-3.71A2.85,2.85,0,0,0,2651,791Zm94.34,16.22a51.46,51.46,0,0,1,2.25,19.75,32.22,32.22,0,0,1-5.7,16.32A24,24,0,0,1,2729,852.4q-9.84,3-16.3-.63t-9.39-13.23a54,54,0,0,1-2.51-20.17,30.64,30.64,0,0,1,5.56-16,25,25,0,0,1,13.27-9.14q9.11-2.78,15.94.88T2745.29,807.17Zm-22.8,1.56q-3.09.94-3.4,8.48a46.73,46.73,0,0,0,2.16,15.58q1.59,5.19,4.87,4.19c2.15-.65,3.3-3.5,3.45-8.53a47.94,47.94,0,0,0-2.21-15.53,8.49,8.49,0,0,0-2-3.73A2.85,2.85,0,0,0,2722.49,808.73Z"/><path class="cls-15" d="M2820.15,722.71q16.08-4.92,27.84,1.54t16.78,22.91a75.82,75.82,0,0,1,3.05,32q-2,15.52-10.59,26.11a46.07,46.07,0,0,1-22.9,15q-16.65,5.09-28.53-1.36T2788.9,796a74,74,0,0,1-2.84-32.08q2.18-15.69,11-26.25A47.23,47.23,0,0,1,2820.15,722.71Zm20.25,32.17q-2.15-7.05-6.34-10.14t-9.82-1.36q-6.13,1.88-9.68,8.64t-3.83,16.8a60.72,60.72,0,0,0,2.64,19.57q4.58,15,17,11.19,5.88-1.8,9.35-8.48t3.68-16.28A63.22,63.22,0,0,0,2840.4,754.88Z"/><path class="cls-15" d="M2912.35,795l-24.2,7.4-8.54-96.31L2933,689.78l1.85,20.88-29.14,8.91,1.69,18.37,27-8.25,1.76,21L2909,759Z"/><path class="cls-15" d="M2984.43,773l-24.19,7.4-8.54-96.31L3005,667.74l1.85,20.88-29.14,8.91,1.69,18.37,27-8.25,1.77,21-27.1,8.29Z"/><path class="cls-15" d="M1956.69,773.7q19.13,62.55-11.66,110t-104.9,70.13a252.14,252.14,0,0,1-60.72,11q-29.73,1.54-53.79-5.59l-30.15-98.63q28.24,7.7,61.91,8.49t58.48-6.78q20.85-6.37,28.89-18.39t3.13-28.07a32.25,32.25,0,0,0-7.74-13.2,61.42,61.42,0,0,0-13.63-10.31q-8.22-4.73-42.17-19-41.05-16.41-64.44-39.46t-33.46-56q-11.3-36.92-1.83-72t38.17-61.59q28.73-26.49,70.43-39.25,67.35-20.6,130.39-6.89l-12.45,95.32q-55.77-10.05-89.59.28-18,5.51-25.34,16.37t-2.66,26.08q4.21,13.81,17.32,22.9t45.71,21q40.74,14.36,65.08,36.49T1956.69,773.7Z"/><path class="cls-15" d="M2254.41,736.6l-126.24,38.6-11.62,88-114.41,35,83.7-476.09,141.74-43.34,160.62,401.4L2280.84,813ZM2141.58,675l82.57-25.25-41.32-118-8-24.06q-6.46-21.13-10.16-37.26a324.1,324.1,0,0,1-2.89,52Z"/><path class="cls-15" d="M2435.55,765.65,2396.66,327l110.19-33.69,30.56,342.86,134.42-41.09,8.32,95.75Z"/><path class="cls-15" d="M2984.21,597.91l-244.6,74.78-38.88-438.62,244.6-74.78,9,94.93-134.41,41.1,6.56,68.86,125.13-38.25,7,95.53L2833.5,459.72l7.71,82.68,134.43-41.09Z"/></g><polygon class="cls-16" points="1988.5 990.47 1466.71 1150.81 1492.57 1071.47 665.94 1315.37 651.57 1396.05 1416.18 1146.45 1398.59 1212.05 1988.5 990.47"/><path class="cls-17" d="M651.69,1100.91l-64.52,19.73L564.4,863.78,706.65,820.3,711.59,876l-77.73,23.76,4.51,49,72-22,4.7,56.13-72.28,22.09Z"/><path class="cls-18" d="M779.42,1061.86,756.65,805l64.53-19.73,17.89,200.78L917.79,962l4.87,56.08Z"/><path class="cls-19" d="M1079.8,920.58l-73.93,22.61-6.8,51.52-67,20.48,49-278.8,83-25.38,94.06,235.06-62.87,19.23Zm-66.07-36.1,48.35-14.78-24.2-69.11-4.66-14.09q-3.79-12.37-6-21.82a189.63,189.63,0,0,1-1.7,30.47Z"/><path class="cls-20" d="M1319,815.87q11.19,36.64-6.83,64.44t-61.43,41.06a147.52,147.52,0,0,1-35.56,6.45,93.59,93.59,0,0,1-31.5-3.27L1166,866.79a151.05,151.05,0,0,0,36.26,5q19.73.47,34.24-4,12.21-3.72,16.92-10.76t1.83-16.44a18.79,18.79,0,0,0-4.52-7.73,36.1,36.1,0,0,0-8-6q-4.82-2.76-24.69-11.13-24-9.6-37.74-23.11a76.7,76.7,0,0,1-19.6-32.8q-6.6-21.62-1.07-42.17T1182,681.54q16.82-15.51,41.24-23,39.43-12.06,76.36-4l-7.29,55.82q-32.67-5.88-52.47.16-10.56,3.24-14.84,9.59t-1.55,15.28a25,25,0,0,0,10.14,13.41q7.67,5.33,26.77,12.29,23.85,8.41,38.11,21.37T1319,815.87Z"/><path class="cls-21" d="M1557.51,824,1493,843.7,1483.54,739l-57.1,17.46,9.12,104.76L1371,881l-22.77-256.86,64.53-19.72,8.86,95.09,57.43-17.56-8.87-95.09,64.69-19.78Z"/><path class="cls-22" d="M680.59,1256.88l-62.19,19-1.56-16.85,21.64-36.11q11.16-18.37,8.51-27a6.25,6.25,0,0,0-3-4.06,6,6,0,0,0-4.54-.27q-7.43,2.28-14.61,14.41l-16.39-12.44q10.29-18.1,29.29-23.91,11.32-3.47,20.14.58t12,14.55a33.15,33.15,0,0,1,0,19.28q-2.88,9.89-12.48,25.13L648.08,1244l.23.74,30.32-9.27Z"/><path class="cls-22" d="M756,1214.68l-9.28,2.84,1.7,18.63-23.32,7.13-1.64-18.65-34,10.39-1.69-16.81,29.69-71.52,22.27-6.81,5.22,58.21,9.22-2.82Zm-34.35-9.45L721,1192.3q-.22-7.17-.28-14.2l-.55.17a62.39,62.39,0,0,1-3.8,12.8l-7.66,18.11Z"/><path class="cls-22" d="M873.83,1197.8l-24.19,7.4L846.1,1166l-21.41,6.54,3.41,39.28-24.19,7.4-8.54-96.31,24.2-7.4,3.32,35.66,21.53-6.58-3.32-35.66,24.25-7.42Z"/><path class="cls-22" d="M919.74,1083.29q16.1-4.92,27.84,1.53t16.78,22.92a75.63,75.63,0,0,1,3,32q-2,15.52-10.59,26.1t-22.9,15q-16.65,5.1-28.53-1.35t-16.9-22.85a74.12,74.12,0,0,1-2.84-32.08q2.18-15.69,11-26.26A47.14,47.14,0,0,1,919.74,1083.29ZM940,1115.46q-2.16-7.05-6.35-10.14t-9.82-1.36q-6.12,1.88-9.67,8.64t-3.83,16.8A60.71,60.71,0,0,0,913,1149q4.57,15,16.95,11.18,5.88-1.79,9.36-8.47A36.8,36.8,0,0,0,943,1135.4,63.18,63.18,0,0,0,940,1115.46Z"/><path class="cls-22" d="M1047.77,1045.7l5.32,61.44q1.67,18.49-6.06,30T1021.66,1154A31.81,31.81,0,0,1,1006,1155a25.08,25.08,0,0,1-12.69-6.54,28.69,28.69,0,0,1-7.62-12.63,45.86,45.86,0,0,1-1.69-8.2l-5.15-60.88,24.19-7.4,5.21,60.18a37.9,37.9,0,0,0,1.31,7.38q2.4,7.86,9.89,5.57a11.7,11.7,0,0,0,7.9-6.78q2.1-5,1.31-13.76l-5.07-58.87Z"/><path class="cls-22" d="M1097.72,1093.35l3.08,35.06-24.2,7.4-8.53-96.31,23.94-7.32q15.6-4.77,25.78-1.12t14,16.09a33.19,33.19,0,0,1,.75,18.18,29.1,29.1,0,0,1-9.71,14.94l23.62,27.69,4.29,5.19-26.36,8L1102.24,1092Zm-1.71-19.57,3.15-1q5.88-1.8,8.31-6.23t.58-10.49a8,8,0,0,0-3.92-5.2q-2.75-1.35-6.83-.11l-3.28,1Z"/><path class="cls-22" d="M1208.88,1065q4.2,13.73-2.56,24.16t-23,15.4A55.48,55.48,0,0,1,1170,1107a35.06,35.06,0,0,1-11.81-1.22l-6.62-21.66a56.34,56.34,0,0,0,13.6,1.86,40.7,40.7,0,0,0,12.84-1.48c3-.94,5.16-2.28,6.34-4a6.93,6.93,0,0,0,.69-6.17,7,7,0,0,0-1.7-2.89,13.4,13.4,0,0,0-3-2.27q-1.82-1-9.26-4.17-9-3.6-14.15-8.66a28.69,28.69,0,0,1-7.35-12.31,27.73,27.73,0,0,1,8-29.33A39.43,39.43,0,0,1,1173,1006a56,56,0,0,1,28.64-1.51l-2.74,20.93q-12.24-2.22-19.67.06c-2.64.81-4.5,2-5.56,3.59a6.41,6.41,0,0,0-.59,5.73,9.43,9.43,0,0,0,3.8,5,48.23,48.23,0,0,0,10,4.61,41.47,41.47,0,0,1,14.29,8A27.32,27.32,0,0,1,1208.88,1065Z"/><path class="cls-22" d="M1286.68,971.1q16.08-4.9,27.84,1.54t16.78,22.92a75.76,75.76,0,0,1,3,32q-2,15.53-10.6,26.11a46,46,0,0,1-22.9,14.95q-16.63,5.09-28.52-1.36t-16.9-22.84a74,74,0,0,1-2.84-32.09q2.17-15.67,11-26.25A47.26,47.26,0,0,1,1286.68,971.1Zm20.25,32.18c-1.43-4.71-3.55-8.08-6.34-10.14s-6.07-2.51-9.83-1.36q-6.12,1.88-9.67,8.64t-3.83,16.8a60.62,60.62,0,0,0,2.64,19.56q4.57,15,16.95,11.19,5.88-1.8,9.35-8.47t3.68-16.29A63.16,63.16,0,0,0,1306.93,1003.28Z"/><path class="cls-22" d="M1434.26,1026.46l-28.16,8.61-37.33-58.14-.49.15q3.71,18.55,4.38,26.94l3.56,40.19-21.54,6.58-8.54-96.31,28.16-8.61,36.29,55.42.56-.17q-2.67-15.15-3.49-24l-3.47-40.34,21.53-6.59Z"/><path class="cls-22" d="M1454.8,1020.18l-8.54-96.31,24.19-7.39,6.72,75.28,29.51-9,1.83,21Z"/><path class="cls-22" d="M1542.77,931l9-39.44,27-8.25-20.93,67,3.24,37.37-24.2,7.4-3.3-37.36L1502,906.83,1527,899.2Z"/><path class="cls-22" d="M2141.71,895.57,2147,957q1.66,18.5-6.06,30t-25.37,16.86a31.92,31.92,0,0,1-15.67,1.07,25.08,25.08,0,0,1-12.69-6.54,28.58,28.58,0,0,1-7.61-12.63,45.12,45.12,0,0,1-1.7-8.21l-5.15-60.87,24.19-7.4,5.21,60.18a38.45,38.45,0,0,0,1.31,7.39q2.4,7.84,9.89,5.56a11.7,11.7,0,0,0,7.9-6.78q2.1-5,1.31-13.76L2117.52,903Z"/><path class="cls-22" d="M2226.54,899.27q4.77,15.6-3.13,27.72t-26.34,17.76l-5.32,1.63,3,31.9-24.2,7.4L2162,889.37l23.08-7.06q16-4.9,26.74-.5T2226.54,899.27Zm-36.51,26,3.9-1.19a12.6,12.6,0,0,0,8-6.4,13.32,13.32,0,0,0,.65-10.25,8.28,8.28,0,0,0-4-5.19,8.64,8.64,0,0,0-6.81-.36l-3.65,1.12Z"/><path class="cls-22" d="M2319.18,940.24l-24.2,7.39-6.88-75-19.62,6-1.84-21.29,63.61-19.45,1.72,21.33-19.68,6Z"/><path class="cls-22" d="M2377.71,821.86q16.1-4.9,27.84,1.54t16.78,22.92a75.6,75.6,0,0,1,3.05,32q-2,15.53-10.59,26.11a46,46,0,0,1-22.9,15q-16.65,5.08-28.53-1.36t-16.9-22.85a74,74,0,0,1-2.84-32.08q2.18-15.69,11-26.25A47.16,47.16,0,0,1,2377.71,821.86ZM2398,854q-2.16-7-6.35-10.13t-9.82-1.36q-6.14,1.86-9.68,8.64T2368.3,868a60.65,60.65,0,0,0,2.63,19.56q4.58,15,17,11.19,5.88-1.8,9.35-8.48t3.68-16.28A63.49,63.49,0,0,0,2398,854Z"/><path class="cls-22" d="M2499,820.44q11.19-3.42,20.38,1.72t12.95,17.45q4.93,16.15-2.35,28t-26.16,17.57a85.05,85.05,0,0,1-15.54,3.26q-7.56.83-11.64-.57l-6.13-20a45.93,45.93,0,0,0,12.53.93,49.56,49.56,0,0,0,11.87-1.9q17.13-5.24,13.51-17.12A10.43,10.43,0,0,0,2503,843q-4-1.95-9.34-.32a41.89,41.89,0,0,0-6.68,2.72,37.75,37.75,0,0,0-5.28,3.1l-9.29-3.39-.86-50.41,50.31-15.38,1.9,21.27-29.15,8.91-.15,12.57A43.9,43.9,0,0,1,2499,820.44Z"/><path class="cls-22" d="M2603.1,786.92q5.64,18.45,4.75,34.37T2600,847.55a34.78,34.78,0,0,1-19.24,14.07q-13,4-22.06-1.78t-13.48-20.17a102.28,102.28,0,0,1-4.83-34.62q.75-16.37,7.68-26.87a34.32,34.32,0,0,1,19.19-14.26,26.71,26.71,0,0,1,15.45-.5,25.64,25.64,0,0,1,12.3,8.05A41.74,41.74,0,0,1,2603.1,786.92Zm-32.67-2.6q-3.41,1-4.7,8.95a74.19,74.19,0,0,0-.18,19.14,106.47,106.47,0,0,0,3.94,20.38,23.81,23.81,0,0,0,3.25,7.32,3.76,3.76,0,0,0,4.45,1.28q3.58-1.1,5.11-7.95t.61-18.15a101.26,101.26,0,0,0-4-21.5,23.94,23.94,0,0,0-3.64-7.79A4.21,4.21,0,0,0,2570.43,784.32Z"/><path class="cls-22" d="M2653.75,759.39a51.12,51.12,0,0,1,2.23,19.82,32.61,32.61,0,0,1-5.69,16.32,24,24,0,0,1-12.8,9.16q-9.84,3-16.31-.66t-9.4-13.27a54,54,0,0,1-2.51-20.17,30.56,30.56,0,0,1,5.56-16,24.92,24.92,0,0,1,13.27-9.13q9.11-2.79,15.94.88T2653.75,759.39Zm43.06-33.53-39.23,110.91-18.37,5.62,39.72-111.06ZM2631,761c-2.06.63-3.2,3.46-3.4,8.48a46.73,46.73,0,0,0,2.16,15.58c1.06,3.47,2.68,4.86,4.87,4.19s3.3-3.49,3.45-8.53a47.88,47.88,0,0,0-2.21-15.52,8.44,8.44,0,0,0-1.94-3.71A2.85,2.85,0,0,0,2631,761Zm94.34,16.22a51.46,51.46,0,0,1,2.25,19.75,32.22,32.22,0,0,1-5.7,16.32A24,24,0,0,1,2709,822.4q-9.84,3-16.3-.63t-9.39-13.23a54,54,0,0,1-2.51-20.17,30.64,30.64,0,0,1,5.56-16,25,25,0,0,1,13.27-9.14q9.11-2.78,15.94.88T2725.29,777.17Zm-22.8,1.56q-3.09.94-3.4,8.48a46.73,46.73,0,0,0,2.16,15.58q1.59,5.19,4.87,4.19c2.15-.65,3.3-3.5,3.45-8.53a47.94,47.94,0,0,0-2.21-15.53,8.49,8.49,0,0,0-2-3.73A2.85,2.85,0,0,0,2702.49,778.73Z"/><path class="cls-22" d="M2800.15,692.71q16.08-4.92,27.84,1.54t16.78,22.91a75.82,75.82,0,0,1,3.05,32q-2,15.52-10.59,26.11a46.07,46.07,0,0,1-22.9,15q-16.65,5.09-28.53-1.36T2768.9,766a74,74,0,0,1-2.84-32.08q2.18-15.69,11-26.25A47.23,47.23,0,0,1,2800.15,692.71Zm20.25,32.17q-2.15-7.05-6.34-10.14t-9.82-1.36q-6.13,1.88-9.68,8.64t-3.83,16.8a60.72,60.72,0,0,0,2.64,19.57q4.58,15,17,11.19,5.88-1.8,9.35-8.48t3.68-16.28A63.22,63.22,0,0,0,2820.4,724.88Z"/><path class="cls-22" d="M2892.35,765l-24.2,7.4-8.54-96.31L2913,659.78l1.85,20.88-29.14,8.91,1.69,18.37,27-8.25,1.76,21L2889,729Z"/><path class="cls-22" d="M2964.43,743l-24.19,7.4-8.54-96.31L2985,637.74l1.85,20.88-29.14,8.91,1.69,18.37,27-8.25,1.77,21-27.1,8.29Z"/><path class="cls-23" d="M1936.69,743.7q19.13,62.55-11.66,110t-104.9,70.13a252.14,252.14,0,0,1-60.72,11q-29.73,1.54-53.79-5.59l-30.15-98.63q28.24,7.7,61.91,8.49t58.48-6.78q20.85-6.37,28.89-18.39t3.13-28.07a32.25,32.25,0,0,0-7.74-13.2,61.42,61.42,0,0,0-13.63-10.31q-8.22-4.73-42.17-19-41.05-16.41-64.44-39.46t-33.46-56q-11.3-36.92-1.83-72t38.17-61.59q28.73-26.49,70.43-39.25,67.35-20.6,130.39-6.89l-12.45,95.32q-55.77-10.05-89.59.28-18,5.51-25.34,16.37t-2.66,26.08q4.21,13.81,17.32,22.9t45.71,21q40.74,14.36,65.08,36.49T1936.69,743.7Z"/><path class="cls-24" d="M2234.41,706.6l-126.24,38.6-11.62,88-114.41,35,83.7-476.09,141.74-43.34,160.62,401.4L2260.84,783ZM2121.58,645l82.57-25.25-41.32-118-8-24.06q-6.46-21.13-10.16-37.26a324.1,324.1,0,0,1-2.89,52Z"/><path class="cls-25" d="M2415.55,735.65,2376.66,297l110.19-33.69,30.56,342.86,134.42-41.09,8.32,95.75Z"/><path class="cls-26" d="M2964.21,567.91l-244.6,74.78-38.88-438.62,244.6-74.78,9,94.93-134.41,41.1,6.56,68.86,125.13-38.25,7,95.53L2813.5,429.72l7.71,82.68,134.43-41.09Z"/><circle class="cls-27" cx="1774.15" cy="609.35" r="342.53"/><circle class="cls-28" cx="639.71" cy="971.87" r="291.04" transform="translate(-499.85 737) rotate(-45)"/><circle class="cls-29" cx="1400.44" cy="846.89" r="291.04"/><circle class="cls-30" cx="2736.3" cy="608.44" r="404.03" transform="translate(371.21 2113.07) rotate(-45)"/></g></g></g></svg>